<svg width="80" height="82" viewBox="0 0 80 82" fill="none" xmlns="http://www.w3.org/2000/svg">
<g opacity="0.75">
<path d="M74.6486 42.5492L67.1715 24.7742C66.9807 24.3153 66.6615 23.9237 66.2538 23.6482C65.846 23.3728 65.3677 23.2257 64.8785 23.2253H57.4014V18.1467C57.4014 17.4732 57.1388 16.8274 56.6714 16.3512C56.204 15.875 55.57 15.6074 54.909 15.6074H7.5539C6.89288 15.6074 6.25893 15.875 5.79152 16.3512C5.32411 16.8274 5.06152 17.4732 5.06152 18.1467V61.3146C5.06152 61.988 5.32411 62.6339 5.79152 63.1101C6.25893 63.5863 6.89288 63.8539 7.5539 63.8539H12.8876C13.4615 66.0056 14.7145 67.9051 16.4532 69.2593C18.1918 70.6136 20.3196 71.3473 22.5081 71.3473C24.6967 71.3473 26.8245 70.6136 28.5631 69.2593C30.3018 67.9051 31.5548 66.0056 32.1287 63.8539H47.7808C48.3548 66.0056 49.6077 67.9051 51.3464 69.2593C53.0851 70.6136 55.2128 71.3473 57.4014 71.3473C59.59 71.3473 61.7177 70.6136 63.4564 69.2593C65.195 67.9051 66.448 66.0056 67.022 63.8539H72.3556C73.0167 63.8539 73.6506 63.5863 74.118 63.1101C74.5854 62.6339 74.848 61.988 74.848 61.3146V43.5396C74.8474 43.1992 74.7796 42.8624 74.6486 42.5492ZM57.4014 28.3039H63.2335L68.5672 41.0003H57.4014V28.3039ZM22.5081 66.3931C21.5223 66.3931 20.5585 66.0953 19.7388 65.5373C18.919 64.9792 18.2801 64.186 17.9028 63.2581C17.5256 62.3301 17.4268 61.3089 17.6192 60.3238C17.8115 59.3386 18.2863 58.4337 18.9834 57.7235C19.6805 57.0132 20.5687 56.5295 21.5357 56.3336C22.5026 56.1376 23.5049 56.2382 24.4157 56.6226C25.3266 57.007 26.1051 57.6579 26.6528 58.4931C27.2005 59.3282 27.4929 60.3101 27.4929 61.3146C27.4929 62.6615 26.9677 63.9532 26.0329 64.9057C25.0981 65.8581 23.8302 66.3931 22.5081 66.3931ZM47.7808 58.7753H32.1287C31.5548 56.6236 30.3018 54.7241 28.5631 53.3698C26.8245 52.0156 24.6967 51.2819 22.5081 51.2819C20.3196 51.2819 18.1918 52.0156 16.4532 53.3698C14.7145 54.7241 13.4615 56.6236 12.8876 58.7753H10.0463V20.686H52.4166V52.5794C51.2817 53.2505 50.288 54.1433 49.4925 55.2065C48.697 56.2697 48.1153 57.4825 47.7808 58.7753ZM57.4014 66.3931C56.4155 66.3931 55.4517 66.0953 54.632 65.5373C53.8123 64.9792 53.1734 64.186 52.7961 63.2581C52.4188 62.3301 52.3201 61.3089 52.5124 60.3238C52.7048 59.3386 53.1795 58.4337 53.8766 57.7235C54.5738 57.0132 55.462 56.5295 56.4289 56.3336C57.3959 56.1376 58.3981 56.2382 59.309 56.6226C60.2198 57.007 60.9983 57.6579 61.5461 58.4931C62.0938 59.3282 62.3861 60.3101 62.3861 61.3146C62.3861 62.6615 61.861 63.9532 60.9261 64.9057C59.9913 65.8581 58.7234 66.3931 57.4014 66.3931ZM69.8633 58.7753H67.022C66.4708 56.6005 65.2276 54.6731 63.4869 53.2947C61.7461 51.9163 59.606 51.1647 57.4014 51.1574V46.0789H69.8633V58.7753Z" fill="white"/>
</g>
</svg>
