<svg width="81" height="82" viewBox="0 0 81 82" fill="none" xmlns="http://www.w3.org/2000/svg">
<g opacity="0.75">
<path d="M53.9118 44.6892L72.6212 63.6153L61.5883 74.7205L43.0118 55.7943V52.6795L50.8545 44.6892H53.9118ZM56.9359 36.1233L53.7124 32.873L37.7945 49.1245V55.7943L19.085 74.8559L8.18506 63.6153L26.7616 44.6892H33.3082L35.9003 42.0483L23.1393 29.0133H18.8192L9.48109 19.3979L18.1878 10.5273L27.4926 20.0073V24.4426L40.4198 37.4437L49.2594 28.4377L46.0691 25.0182L50.3893 20.5829H41.5496L39.3896 18.3822L50.3893 7.1416L52.5826 9.37617V18.3822L56.9359 13.913L67.8359 25.0182C71.4581 28.7425 71.4581 34.8029 67.8359 38.4933L61.2892 31.688L56.9359 36.1233Z" fill="white"/>
</g>
</svg>
