<svg width="21" height="20" viewBox="0 0 21 20" fill="none" xmlns="http://www.w3.org/2000/svg">
<g clip-path="url(#clip0)">
<path d="M7.66725 3.14012V7.66981C7.66725 7.9473 7.89606 8.17175 8.17894 8.17175H9.97607V9.53473H3.11201C2.82913 9.53473 2.60033 9.75918 2.60033 10.0367V11.8281H0.803189C0.520306 11.8281 0.291504 12.0526 0.291504 12.3301V16.8598C0.291504 17.1373 0.520306 17.3617 0.803189 17.3617H5.42083C5.70371 17.3617 5.93252 17.1373 5.93252 16.8598V12.3301C5.93252 12.0526 5.70371 11.8281 5.42083 11.8281H3.61953V10.5345H9.97191V11.8281H8.17478C7.89189 11.8281 7.66309 12.0526 7.66309 12.3301V16.8598C7.66309 17.1373 7.89189 17.3617 8.17478 17.3617H12.7924C13.0753 17.3617 13.3041 17.1373 13.3041 16.8598V12.3301C13.3041 12.0526 13.0753 11.8281 12.7924 11.8281H10.9953V10.5345H17.3477V11.8281H15.5505C15.2676 11.8281 15.0388 12.0526 15.0388 12.3301V16.8598C15.0388 17.1373 15.2676 17.3617 15.5505 17.3617H20.1682C20.4511 17.3617 20.6799 17.1373 20.6799 16.8598V12.3301C20.6799 12.0526 20.4511 11.8281 20.1682 11.8281H18.371V10.0367C18.371 9.75918 18.1422 9.53473 17.8593 9.53473H10.9953V8.17175H12.7924C13.0753 8.17175 13.3041 7.9473 13.3041 7.66981V3.14012C13.3041 2.86263 13.0753 2.63818 12.7924 2.63818H8.17478C7.89605 2.63818 7.66725 2.86263 7.66725 3.14012ZM4.90915 16.3538H1.31487V12.8239H4.90915V16.3538ZM12.2807 16.3538H8.6823V12.8239H12.2807V16.3538ZM19.6523 16.3538H16.0581V12.8239H19.6565V16.3538H19.6523ZM8.68646 3.63798H12.2849V7.16787H8.68646V3.63798Z" fill="white"/>
</g>
<defs>
<clipPath id="clip0">
<rect width="20.3883" height="20" fill="white" transform="translate(0.291504)"/>
</clipPath>
</defs>
</svg>
