<svg width="21" height="22" viewBox="0 0 21 22" fill="none" xmlns="http://www.w3.org/2000/svg">
<path d="M10.5001 3.92337C10.6548 3.92337 10.8032 3.85899 10.9126 3.74438C11.022 3.62978 11.0834 3.47434 11.0834 3.31226V1.16726C11.0834 1.00519 11.022 0.849748 10.9126 0.735143C10.8032 0.620537 10.6548 0.556152 10.5001 0.556152C10.3454 0.556152 10.197 0.620537 10.0876 0.735143C9.97821 0.849748 9.91675 1.00519 9.91675 1.16726V3.31226C9.91675 3.47434 9.97821 3.62978 10.0876 3.74438C10.197 3.85899 10.3454 3.92337 10.5001 3.92337Z" fill="white"/>
<path d="M10.5001 18.0767C10.3454 18.0767 10.197 18.141 10.0876 18.2556C9.97821 18.3703 9.91675 18.5257 9.91675 18.6878V20.8328C9.91675 20.9948 9.97821 21.1503 10.0876 21.2649C10.197 21.3795 10.3454 21.4439 10.5001 21.4439C10.6548 21.4439 10.8032 21.3795 10.9126 21.2649C11.022 21.1503 11.0834 20.9948 11.0834 20.8328V18.6878C11.0834 18.5257 11.022 18.3703 10.9126 18.2556C10.8032 18.141 10.6548 18.0767 10.5001 18.0767Z" fill="white"/>
<path d="M4.89992 5.99487C5.01151 6.09499 5.15506 6.1473 5.30187 6.14136C5.44868 6.13542 5.58795 6.07166 5.69183 5.96283C5.79572 5.85399 5.85658 5.70809 5.86225 5.55429C5.86792 5.40049 5.81799 5.25011 5.72242 5.1332L4.27575 3.61765C4.16416 3.51753 4.02062 3.46522 3.87381 3.47116C3.727 3.4771 3.58773 3.54086 3.48384 3.64969C3.37995 3.75853 3.31909 3.90443 3.31342 4.05823C3.30775 4.21203 3.35769 4.36241 3.45325 4.47932L4.89992 5.99487Z" fill="white"/>
<path d="M16.1 16.0049C15.9884 15.9047 15.8448 15.8524 15.698 15.8584C15.5512 15.8643 15.412 15.9281 15.3081 16.0369C15.2042 16.1457 15.1433 16.2916 15.1376 16.4454C15.132 16.5992 15.1819 16.7496 15.2775 16.8665L16.7241 18.3821C16.8357 18.4822 16.9793 18.5345 17.1261 18.5286C17.2729 18.5226 17.4122 18.4589 17.5161 18.35C17.6199 18.2412 17.6808 18.0953 17.6865 17.9415C17.6921 17.7877 17.6422 17.6373 17.5466 17.5204L16.1 16.0049Z" fill="white"/>
<path d="M3.74493 10.9998C3.74493 10.8377 3.68347 10.6823 3.57407 10.5677C3.46468 10.4531 3.3163 10.3887 3.1616 10.3887H1.1141C0.959385 10.3887 0.811012 10.4531 0.701616 10.5677C0.59222 10.6823 0.530762 10.8377 0.530762 10.9998C0.530762 11.1619 0.59222 11.3173 0.701616 11.4319C0.811012 11.5465 0.959385 11.6109 1.1141 11.6109H3.1616C3.3163 11.6109 3.46468 11.5465 3.57407 11.4319C3.68347 11.3173 3.74493 11.1619 3.74493 10.9998Z" fill="white"/>
<path d="M19.8857 10.3887H17.8382C17.6835 10.3887 17.5351 10.4531 17.4257 10.5677C17.3163 10.6823 17.2549 10.8377 17.2549 10.9998C17.2549 11.1619 17.3163 11.3173 17.4257 11.4319C17.5351 11.5465 17.6835 11.6109 17.8382 11.6109H19.8857C20.0404 11.6109 20.1888 11.5465 20.2982 11.4319C20.4076 11.3173 20.469 11.1619 20.469 10.9998C20.469 10.8377 20.4076 10.6823 20.2982 10.5677C20.1888 10.4531 20.0404 10.3887 19.8857 10.3887Z" fill="white"/>
<path d="M4.89992 16.0049L3.45325 17.5204C3.35769 17.6373 3.30775 17.7877 3.31342 17.9415C3.31909 18.0953 3.37995 18.2412 3.48384 18.35C3.58773 18.4589 3.727 18.5226 3.87381 18.5286C4.02062 18.5345 4.16416 18.4822 4.27575 18.3821L5.72242 16.8665C5.81799 16.7496 5.86792 16.5992 5.86225 16.4454C5.85658 16.2916 5.79572 16.1457 5.69183 16.0369C5.58795 15.9281 5.44868 15.8643 5.30187 15.8584C5.15506 15.8524 5.01151 15.9047 4.89992 16.0049Z" fill="white"/>
<path d="M16.1 5.99487L17.5466 4.47932C17.6422 4.36241 17.6921 4.21203 17.6865 4.05823C17.6808 3.90443 17.6199 3.75853 17.5161 3.64969C17.4122 3.54086 17.2729 3.4771 17.1261 3.47116C16.9793 3.46522 16.8357 3.51753 16.7241 3.61765L15.2775 5.1332C15.1819 5.25011 15.132 5.40049 15.1376 5.55429C15.1433 5.70809 15.2042 5.85399 15.3081 5.96283C15.412 6.07166 15.5512 6.13542 15.698 6.14136C15.8448 6.1473 15.9884 6.09499 16.1 5.99487Z" fill="white"/>
<path d="M10.5001 17.1109C13.7217 17.1109 16.3334 14.3749 16.3334 10.9998C16.3334 7.62471 13.7217 4.88867 10.5001 4.88867C7.27842 4.88867 4.66675 7.62471 4.66675 10.9998C4.66675 14.3749 7.27842 17.1109 10.5001 17.1109Z" fill="white"/>
</svg>
