<svg width="80" height="82" viewBox="0 0 80 82" fill="none" xmlns="http://www.w3.org/2000/svg">
<g opacity="0.75">
<path d="M14.2792 34.2288C13.7214 36.441 13.44 38.7162 13.4417 41.0002C13.4417 43.3364 13.7342 45.6048 14.2792 47.7716H23.7436C23.2955 43.2689 23.2955 38.7315 23.7436 34.2288H14.2792ZM16.9975 27.4574H24.7937C25.6776 23.3369 26.9537 19.6465 28.5189 16.5757C23.6943 18.9437 19.68 22.7351 16.9975 27.4574ZM65.7749 34.2288H56.3106C56.7586 38.7315 56.7586 43.2689 56.3106 47.7716H65.7749C66.8938 43.3293 66.8938 38.6711 65.7749 34.2288ZM63.0566 27.4574C60.3741 22.7351 56.3598 18.9437 51.5352 16.5757C53.1037 19.6465 54.3765 23.3369 55.2605 27.4574H63.0566ZM30.4298 34.2288C30.1808 36.477 30.0565 38.7377 30.0576 41.0002C30.0576 43.3194 30.1838 45.5879 30.4298 47.7716H49.6244C50.1248 43.2718 50.1248 38.7287 49.6244 34.2288H30.4298ZM31.6195 27.4574H48.4347C47.8299 24.9123 46.9575 22.4411 45.8326 20.0867C43.7457 15.8376 41.5125 13.9145 40.0271 13.9145C38.5383 13.9145 36.3084 15.8376 34.2215 20.0867C33.1747 22.2264 32.2941 24.7149 31.6195 27.4574ZM16.9975 54.5431C19.68 59.2654 23.6943 63.0567 28.5189 65.4248C26.9504 62.3539 25.6776 58.6635 24.7937 54.5431H16.9975ZM63.0566 54.5431H55.2605C54.3765 58.6635 53.1004 62.3539 51.5352 65.4248C56.3598 63.0567 60.3741 59.2654 63.0566 54.5431ZM31.6195 54.5431C32.2941 57.2855 33.1747 59.774 34.2215 61.9138C36.3084 66.1628 38.5416 68.0859 40.0271 68.0859C41.5158 68.0859 43.7457 66.1628 45.8326 61.9138C46.8794 59.774 47.7601 57.2855 48.4347 54.5431H31.6195ZM40.0271 74.8574C21.6732 74.8574 6.79541 59.6995 6.79541 41.0002C6.79541 22.3009 21.6732 7.14307 40.0271 7.14307C58.3809 7.14307 73.2587 22.3009 73.2587 41.0002C73.2587 59.6995 58.3809 74.8574 40.0271 74.8574Z" fill="white"/>
</g>
</svg>
